<?xml version="1.0" encoding="UTF-8" standalone="no"?>
<svg viewBox="0 0 503.00018 503.00018" xmlns="http://www.w3.org/2000/svg">
<path d="m-317.14285,318.07648c0,149.90585-121.52271,271.42856-271.42856,271.42856s-271.42856-121.52271-271.42856-271.42856 121.52271-271.42856 271.42856-271.42856 271.42856,121.52271 271.42856,271.42856z" stroke="#000" stroke-width="3.25714" transform="matrix(.92105,0,0,.92105,793.60555,-41.46521)"/>
<path d="m-131.42859,503.79074c0,72.58599-61.40095,131.42857-137.14285,131.42857s-137.14285-58.84258-137.14285-131.42857 61.40095-131.42857 137.14285-131.42857 137.14285,58.84258 137.14285,131.42857z" fill="#fffbff" transform="matrix(.91146,0,0,.95109,371.29145,-222.64863)"/>
<path d="m-317.14285,318.07648c-8e-005,149.29176-120.56603,270.55852-269.85528,271.42385s-271.25287-118.99562-272.9836-268.27735l271.41032-3.1465h271.42856z" fill="#fff" transform="matrix(.92105,.0003,-.0003,.92105,793.68595,-41.28701)"/>
<path d="m-780.00002-169.06639c0,52.86155-54.36543,95.7143-121.42859,95.7143s-121.42859-42.85275-121.42859-95.7143 54.36543-95.7143 121.42859-95.7143 121.42859,42.85275 121.42859,95.7143z" transform="matrix(.32941,0,0,.41791,418.44135,322.15479)"/>
<path d="m-131.42859,503.79074c0,72.58599-61.40095,131.42857-137.14285,131.42857s-137.14285-58.84258-137.14285-131.42857 61.40095-131.42857 137.14285-131.42857 137.14285,58.84258 137.14285,131.42857z" transform="matrix(.91146,0,0,.95109,621.29145,-222.64863)"/>
<path d="m-780.00002-169.06639c0,52.86155-54.36543,95.7143-121.42859,95.7143s-121.42859-42.85275-121.42859-95.7143 54.36543-95.7143 121.42859-95.7143 121.42859,42.85275 121.42859,95.7143z" fill="#fff" transform="matrix(.32941,0,0,.41791,678.44115,322.15479)"/>
</svg>
